<?xml version="1.0" encoding="UTF-8" standalone="no"?>
<svg
   xmlns:ooo="http://xml.openoffice.org/svg/export"
   xmlns:dc="http://purl.org/dc/elements/1.1/"
   xmlns:cc="http://creativecommons.org/ns#"
   xmlns:rdf="http://www.w3.org/1999/02/22-rdf-syntax-ns#"
   xmlns:svg="http://www.w3.org/2000/svg"
   xmlns="http://www.w3.org/2000/svg"
   xmlns:xlink="http://www.w3.org/1999/xlink"
   xmlns:sodipodi="http://sodipodi.sourceforge.net/DTD/sodipodi-0.dtd"
   xmlns:inkscape="http://www.inkscape.org/namespaces/inkscape"
   inkscape:export-ydpi="96.000008"
   inkscape:export-xdpi="96.000008"
   inkscape:export-filename="/home/dhs/Downloads/via-profit-services-logo.png"
   sodipodi:docname="via-profit-services-logo.svg"
   inkscape:version="1.0beta2 (unknown)"
   id="svg1285"
   version="1.1"
   viewBox="0 0 135.46666 135.46666"
   height="135.46666mm"
   width="135.46666mm">
  <defs
     id="defs1279">
    <linearGradient
       id="linearGradient2205"
       inkscape:collect="always">
      <stop
         id="stop2201"
         offset="0"
         style="stop-color:#3900ff;stop-opacity:1" />
      <stop
         id="stop2203"
         offset="1"
         style="stop-color:#f0009f;stop-opacity:1" />
    </linearGradient>
    <clipPath
       id="presentation_clip_path"
       clipPathUnits="userSpaceOnUse">
      <rect
         x="0"
         y="0"
         width="29700"
         height="21000"
         id="rect3756" />
    </clipPath>
    <g
       ooo:slide="id1"
       ooo:id-list="id3 id4 id5 id6"
       id="g3761" />
    <g
       id="bullet-char-template(57356)"
       transform="matrix(4.8828125e-4,0,0,-4.8828125e-4,0,0)">
      <path
         d="M 580,1141 1163,571 580,0 -4,571 Z"
         id="path3765"
         inkscape:connector-curvature="0" />
    </g>
    <g
       id="bullet-char-template(57354)"
       transform="matrix(4.8828125e-4,0,0,-4.8828125e-4,0,0)">
      <path
         d="M 8,1128 H 1137 V 0 H 8 Z"
         id="path3768"
         inkscape:connector-curvature="0" />
    </g>
    <g
       id="bullet-char-template(10146)"
       transform="matrix(4.8828125e-4,0,0,-4.8828125e-4,0,0)">
      <path
         d="M 174,0 602,739 174,1481 1456,739 Z M 1358,739 309,1346 659,739 Z"
         id="path3771"
         inkscape:connector-curvature="0" />
    </g>
    <g
       id="bullet-char-template(10132)"
       transform="matrix(4.8828125e-4,0,0,-4.8828125e-4,0,0)">
      <path
         d="M 2015,739 1276,0 H 717 l 543,543 H 174 v 393 h 1086 l -543,545 h 557 z"
         id="path3774"
         inkscape:connector-curvature="0" />
    </g>
    <g
       id="bullet-char-template(10007)"
       transform="matrix(4.8828125e-4,0,0,-4.8828125e-4,0,0)">
      <path
         d="m 0,-2 c -7,16 -16,29 -25,39 l 381,530 c -94,256 -141,385 -141,387 0,25 13,38 40,38 9,0 21,-2 34,-5 21,4 42,12 65,25 l 27,-13 111,-251 280,301 64,-25 24,25 c 21,-10 41,-24 62,-43 C 886,937 835,863 770,784 769,783 710,716 594,584 L 774,223 c 0,-27 -21,-55 -63,-84 l 16,-20 C 717,90 699,76 672,76 641,76 570,178 457,381 L 164,-76 c -22,-34 -53,-51 -92,-51 -42,0 -63,17 -64,51 -7,9 -10,24 -10,44 0,9 1,19 2,30 z"
         id="path3777"
         inkscape:connector-curvature="0" />
    </g>
    <g
       id="bullet-char-template(10004)"
       transform="matrix(4.8828125e-4,0,0,-4.8828125e-4,0,0)">
      <path
         d="M 285,-33 C 182,-33 111,30 74,156 52,228 41,333 41,471 c 0,78 14,145 41,201 34,71 87,106 158,106 53,0 88,-31 106,-94 l 23,-176 c 8,-64 28,-97 59,-98 l 735,706 c 11,11 33,17 66,17 42,0 63,-15 63,-46 V 965 c 0,-36 -10,-64 -30,-84 L 442,47 C 390,-6 338,-33 285,-33 Z"
         id="path3780"
         inkscape:connector-curvature="0" />
    </g>
    <g
       id="bullet-char-template(9679)"
       transform="matrix(4.8828125e-4,0,0,-4.8828125e-4,0,0)">
      <path
         d="M 813,0 C 632,0 489,54 383,161 276,268 223,411 223,592 c 0,181 53,324 160,431 106,107 249,161 430,161 179,0 323,-54 432,-161 108,-107 162,-251 162,-431 0,-180 -54,-324 -162,-431 C 1136,54 992,0 813,0 Z"
         id="path3783"
         inkscape:connector-curvature="0" />
    </g>
    <g
       id="bullet-char-template(8226)"
       transform="matrix(4.8828125e-4,0,0,-4.8828125e-4,0,0)">
      <path
         d="m 346,457 c -73,0 -137,26 -191,78 -54,51 -81,114 -81,188 0,73 27,136 81,188 54,52 118,78 191,78 73,0 134,-26 185,-79 51,-51 77,-114 77,-187 0,-75 -25,-137 -76,-188 -50,-52 -112,-78 -186,-78 z"
         id="path3786"
         inkscape:connector-curvature="0" />
    </g>
    <g
       id="bullet-char-template(8211)"
       transform="matrix(4.8828125e-4,0,0,-4.8828125e-4,0,0)">
      <path
         d="M -4,459 H 1135 V 606 H -4 Z"
         id="path3789"
         inkscape:connector-curvature="0" />
    </g>
    <linearGradient
       gradientUnits="userSpaceOnUse"
       y2="57.326523"
       x2="48.840847"
       y1="-66.558273"
       x1="-65.761795"
       id="linearGradient2209"
       xlink:href="#linearGradient2205"
       inkscape:collect="always" />
    <filter
       id="filter2668"
       inkscape:label="Blur"
       style="color-interpolation-filters:sRGB;">
      <feGaussianBlur
         id="feGaussianBlur2666"
         result="blur"
         stdDeviation="3 3" />
    </filter>
  </defs>
  <sodipodi:namedview
     inkscape:window-maximized="1"
     inkscape:window-y="28"
     inkscape:window-x="0"
     inkscape:window-height="714"
     inkscape:window-width="1366"
     inkscape:snap-nodes="false"
     inkscape:snap-global="true"
     fit-margin-bottom="0"
     fit-margin-right="0"
     fit-margin-left="0"
     fit-margin-top="0"
     showgrid="false"
     inkscape:document-rotation="0"
     inkscape:current-layer="layer3"
     inkscape:document-units="mm"
     inkscape:cy="194.23917"
     inkscape:cx="207.00643"
     inkscape:zoom="0.49497475"
     inkscape:pageshadow="2"
     inkscape:pageopacity="0.0"
     borderopacity="1.0"
     bordercolor="#666666"
     pagecolor="#ffffff"
     id="base" />
  <metadata
     id="metadata1282">
    <rdf:RDF>
      <cc:Work
         rdf:about="">
        <dc:format>image/svg+xml</dc:format>
        <dc:type
           rdf:resource="http://purl.org/dc/dcmitype/StillImage" />
        <dc:title></dc:title>
      </cc:Work>
    </rdf:RDF>
  </metadata>
  <g
     transform="translate(70.247765,71.474777)"
     id="layer1"
     inkscape:groupmode="layer"
     inkscape:label="back">
    <circle
       r="65.749763"
       cy="-3.7414472"
       cx="-2.5144353"
       id="path2199"
       style="fill:url(#linearGradient2209);fill-opacity:1;stroke-width:4.7561" />
  </g>
  <g
     inkscape:label="via-profit-logo"
     id="layer2"
     inkscape:groupmode="layer">
    <g
       style="fill:#ffffff;fill-opacity:1"
       inkscape:label="Layer 1"
       id="layer1-7"
       transform="matrix(0.41942523,0,0,0.41942523,-16.61565,102.4893)">
      <g
         style="fill:#ffffff;fill-opacity:1;fill-rule:evenodd;stroke-width:28.222;stroke-linejoin:round"
         id="id2"
         class="Master_Slide"
         transform="matrix(0.01,0,0,0.01,79.881984,55.920144)">
        <g
           style="fill:#ffffff;fill-opacity:1"
           id="bg-id2"
           class="Background" />
        <g
           style="fill:#ffffff;fill-opacity:1"
           id="bo-id2"
           class="BackgroundObjects" />
      </g>
      <path
         inkscape:connector-curvature="0"
         style="fill:#ffffff;fill-opacity:1;fill-rule:evenodd;stroke:none;stroke-width:0.0252535;stroke-linejoin:round"
         id="path3803-6"
         d="m 201.04237,-217.91811 c 69.59862,0 126.77265,53.13337 133.13652,121.065324 l -0.30311,-0.100978 c 0,0 -2.5506,-0.934369 -3.88905,-1.439444 -1.33837,-0.530282 -1.13637,-1.439444 -2.0202,-1.414128 -0.90917,0 -1.36377,-0.353564 -1.36377,-0.353564 0,0 0.47983,-0.65662 1.26268,-1.81831 0.78292,-1.16168 1.66676,-2.82837 1.66676,-2.82837 0,0 -0.45461,0.78285 -1.18692,0.95962 -0.70707,0.17678 -4.39412,0.55558 -4.39412,0.55558 0,0 0.27776,-0.88393 0.30311,-1.54054 0.0252,-0.65653 0.0506,-1.81821 0.0506,-1.81821 0,0 -0.60615,0.0253 -1.26269,0.35357 -0.6566,0.3031 -2.34859,1.11115 -3.03042,0.4293 -0.68185,-0.6566 -1.26269,-2.50005 -1.06063,-3.4092 0.17666,-0.88391 0.68187,-0.95961 1.01008,-1.03537 0.35363,-0.0758 1.18694,-0.0506 1.18694,-0.0506 0,0 -1.64147,-0.88392 -2.60107,-1.28792 -0.9597,-0.40402 -2.47491,-1.13645 -2.47491,-2.02028 0,-0.88393 0.27782,-1.16169 0.0506,-1.84354 -0.22729,-0.68184 -0.65659,-1.11114 -0.65659,-1.11114 0,0 -0.15163,0.93438 -0.6314,0.93438 -0.5051,0 -1.94452,-0.68184 -3.35866,-2.27283 -1.38899,-1.59099 -1.54053,-1.71722 -2.42438,-2.04552 -0.90913,-0.32828 -2.80313,-1.96976 -2.82843,-3.20721 -0.0252,-1.23737 0.37886,-1.86876 0.37886,-1.86876 0,0 -0.40402,0.25253 -1.28791,0.98492 -0.88392,0.73231 -1.26268,0.65653 -1.89407,0.55552 -0.65653,-0.12627 -1.13638,-0.37874 -0.98483,-1.56567 0.12614,-1.18692 0.6566,-2.50014 0.6566,-3.20722 0,-0.70707 -0.22731,-1.18692 -0.22731,-1.18692 0,0 -0.15142,1.54047 -0.75761,1.41423 -0.60611,-0.12632 -1.389,-1.18692 -1.793,-1.61622 -0.37884,-0.40403 0.0253,0.12626 -0.47982,0.65654 -0.50512,0.53035 -1.13639,1.13645 -1.793,0 -0.6566,-1.13639 -2.77789,-6.06082 -2.62635,-7.24773 0.17685,-1.1869 -0.0252,-1.89406 -0.0252,-1.89406 0,0 -0.10092,0.75761 -0.35357,1.43946 -0.25253,0.68183 -0.22729,1.61621 -1.23744,1.48999 -0.98493,-0.10099 -2.44961,-0.80816 -2.44961,-0.80816 0,0 4.87396,-10.90945 4.1416,-16.31372 -0.70708,-5.37903 -2.34862,-12.87928 -12.29847,-13.71266 -9.94991,-0.80815 -13.20758,-1.28791 -18.43508,0.83338 -5.22742,2.09598 -10.27816,6.66687 -10.27816,6.66687 0,0 -24.16755,-9.09125 -36.062,-8.53563 -11.86914,0.55551 -38.15803,2.09599 -53.63844,8.08109 -15.48043,6.01035 -13.03084,3.88906 -19.79878,8.81348 -6.76795,4.87396 -8.05586,5.68203 -8.71248,6.43964 -0.65661,0.73238 -4.92442,6.26288 -6.54064,7.57609 -1.64144,1.28793 -1.96975,1.94453 -3.4345,2.27275 -1.4647,0.32828 -2.37383,0.50507 -2.44953,0.98493 -0.0758,0.47983 -0.32827,1.79298 -0.32827,2.92943 0,1.13639 -0.40402,3.91429 -1.28798,4.97489 -0.90908,1.06069 -3.58598,4.49512 -3.58598,4.49512 0,0 0.50506,0 1.61622,0.1515 1.13646,0.17678 1.13646,0.17678 1.13646,0.17678 0,0 -2.44961,1.86882 -6.99526,5.70734 -4.57089,3.81329 -8.33363,7.72755 -11.08631,9.77308 -2.7779,2.04552 -4.419345,3.58605 -6.692173,4.72242 -2.272829,1.136382 -7.525554,4.671869 -8.661934,5.93456 -1.111146,1.237452 -1.540451,1.313217 -1.767758,1.742522 -0.25253,0.403961 -1.035375,1.893985 -0.656612,3.080903 0.378855,1.212145 1.792986,6.540641 2.121292,6.692183 0.328275,0.151493 0.328275,0.176783 0.429311,0.277818 0.07575,0.100975 0.707144,0.80815 0.909148,0.984914 0.2273,0.176782 0.505058,0.353564 0.656606,0.429311 0.126265,0.05058 0.227239,0.02529 0.277757,0.100975 0.05058,0.07575 0.126326,0.227362 0.277819,0.176782 0.126326,-0.05058 0.126326,-0.328275 0.202073,-0.429312 0.05057,-0.100974 0.555514,-0.479767 1.111152,-0.505058 0.555514,-0.02529 0.681833,0.100975 0.909066,0.176783 0.227301,0.07575 0.277819,0.101036 0.277819,0.101036 0,0 -0.02529,1.818221 0.02529,2.323292 0.05058,0.479829 0.20201,1.035374 0.2273,1.363679 0.02529,0.328276 -0.02529,1.691988 -0.02529,2.070831 0,0.353564 0.02529,3.863735 0.656607,4.823425 0.656612,0.984839 1.388995,1.792987 1.489989,2.196984 0.07575,0.429435 1.060609,1.06069 1.36368,1.717295 0.328276,0.656613 0.934381,2.222292 2.045527,2.298063 1.111141,0.05058 4.141591,-0.126326 4.798191,-0.151494 0.63131,-0.02529 0.75761,-0.126263 0.98483,-0.176781 0.25253,-0.07575 1.16169,0 1.16169,0 0,0 0.42931,1.388915 0.93438,1.9193 0.47983,0.530285 1.66676,0.858604 1.66676,0.858604 0,0 -0.30311,-1.590987 -0.1515,-1.995059 0.17672,-0.404021 -0.0253,-1.035375 1.46468,-1.18691 1.46468,-0.176783 13.83898,0.07575 13.83898,0.07575 0,0 0.88383,0.656612 1.3889,0.656612 0.53029,0 3.33344,-0.580866 3.99005,0.984832 0.65661,1.540457 -1.59099,1.616222 -2.14651,1.691993 -0.5303,0.05058 -1.96976,0.202072 -2.39913,0.353566 -0.40396,0.151492 -1.16161,0.378854 -1.16161,0.378854 0,0 0.0757,0.757612 -1.26269,1.186917 -1.33845,0.45454 -1.86876,1.010147 -1.99506,1.262675 -0.12627,0.25253 -0.98484,1.464687 -1.28792,1.641457 -0.32827,0.151555 -1.76776,0.631378 -2.27283,0.580867 -0.50506,-0.02529 -1.84353,-0.50512 -2.47482,-1.565686 -0.60609,-1.060683 -0.6313,-1.46476 -0.6313,-1.46476 0,0 -0.98492,1.262687 -0.65661,2.247606 0.32828,1.01014 0.78284,1.893985 1.06061,2.803126 0.27781,0.909153 0.80814,2.373828 0.27781,2.752596 -0.50506,0.353688 -1.33846,0.681846 -1.33846,0.681846 0,0 -0.0506,1.691988 0.0253,2.575907 0.0506,0.858605 0.22736,1.79298 0.27782,2.197051 0.0253,0.404021 -0.15149,1.161689 0.0253,1.414224 0.15156,0.252528 3.25767,6.187113 7.6518,7.828557 4.39412,1.616216 6.69217,2.601141 9.62162,2.121285 2.92936,-0.505056 7.57602,-1.969749 8.23263,-1.969749 0.65661,0 1.69198,-0.151554 1.99498,0 0.32828,0.176783 1.21222,0.656532 1.21222,0.656532 0,0 -0.0758,-0.606094 -0.22736,-0.858611 -0.15149,-0.277757 -0.25253,-0.580742 -0.0758,-0.833295 0.1515,-0.25253 0.32828,-0.555577 1.66676,-0.656613 1.31315,-0.100975 4.11636,-0.555576 5.45473,-0.404022 1.33845,0.151492 1.33845,0.808148 1.33845,0.808148 l -0.25253,1.060604 c 0,0 0.0758,-0.252529 0.73238,-0.252529 0.65661,0 1.38891,0.808141 2.12129,2.121286 0.73238,1.287916 1.16169,2.197063 1.46469,2.449598 0.32827,0.227301 0.68183,0 1.08591,0.202072 0.40402,0.202012 0.40402,0.227239 0.6313,0.328152 0.22737,0.101037 0.73239,0.277881 0.73239,0.277881 0,0 0.0506,1.085905 0.27774,1.691963 0.25254,0.606093 0.53036,1.237378 0.53036,1.237378 0,0 -0.20207,-1.161595 0.27781,-1.590913 0.45448,-0.454602 1.76776,-1.16167 2.3486,-0.02529 0.58074,1.111152 0.37873,1.186917 0.40402,1.565772 0,0.378732 -0.0252,0.404022 0.0758,0.606032 0.10097,0.176598 0.35356,0.555515 0.35356,0.555515 0,0 -0.12627,-0.78284 0.0758,-0.883839 0.22736,-0.100913 0.73236,0.202072 1.13646,0.404083 0.4293,0.176844 1.36368,0.176844 1.36368,0.176844 0,0 0.37873,1.136362 0.50505,1.818215 0.10098,0.656612 -0.0758,0.252529 0.55552,0.100974 0.63139,-0.176906 1.06069,-0.27788 1.06069,-0.27788 0,0 0.0506,0.934381 0.0253,2.020293 0,1.085911 0.0758,2.979903 -0.6061,3.762823 -0.6566,0.782833 -1.31321,1.010066 -1.31321,1.010066 0,0 0.90915,0.202195 1.84352,0.151492 0.93438,-0.05058 2.50014,-0.07569 2.97989,0.580866 0.50506,0.6566 0.50506,1.464667 0.50506,1.464667 0,0 -0.65652,0.353565 -1.18691,0.555637 -0.55552,0.202073 -1.26268,0.429312 -1.26268,0.429312 0,0 0.35363,0.429311 0.47982,0.555514 0.12634,0.100913 0.50513,0.252529 0.50513,0.252529 v 0.984912 l -0.30311,-0.02529 c 0,0 0.12633,1.13638 0.30311,1.489927 0.15149,0.328275 0.40402,0.303047 0.40402,0.303047 l 1.38892,-0.151493 h 0.80814 c 0,0 -0.2273,0.757606 -0.42931,1.161677 -0.2273,0.404021 -0.78291,1.616228 -1.36368,1.616228 -0.58087,0 -1.48998,-0.02529 -1.48998,-0.02529 0,0 0.93437,0.5808659 1.3889,0.7323833 0.45461,0.1513693 0.73238,0.075685 1.08591,-0.05058 0.35356,-0.1261411 0.80816,-0.3282753 0.80816,-0.3282753 0,0 0.10097,0.4798295 -0.12633,0.9091474 -0.20201,0.4040215 -0.20201,0.7071549 -0.20201,0.7071549 0,0 0,0.883839 0,1.3636748 0,0.4797681 0,1.2626139 0,1.2626139 l 0.80814,-0.328152 c 0,0 0.42932,0.7828335 0.42932,1.3636686 0,0.5808659 -0.10104,1.717221 -0.10104,2.1465328 0,0.4293111 -0.20201,1.3889098 -0.22723,2.4495929 -0.0253,1.03538184 0.22723,1.5404638 0.47976,2.8536635 0.25253,1.2879107 0.73238,4.3940475 0.25253,4.8738881 -0.50506,0.5050586 -1.692,1.0101475 -2.1213,1.6162234 -0.42932,0.6060942 -0.8333,1.3384657 -0.8333,1.3384657 0,0 1.41414,-1.1869369 2.37383,-1.1363874 0.98483,0.075688 2.72736,-0.05058 2.85359,0.6313094 0.12633,0.707069 0.32828,2.12128 -0.32827,2.449587 -0.65654,0.328276 -3.99005,0.126141 -3.99005,0.126141 0,0 0.0758,1.338434 0.83338,1.515223 0.75761,0.202072 1.41422,0.100913 1.76776,0.959603 0.35356,0.883919 0.37872,1.515224 -0.37886,1.641512 -0.78285,0.126142 -1.89399,0.479769 -2.17175,0.808075 -0.25253,0.328276 -0.78285,1.464772 -0.78285,1.464772 0,0 0.58074,-0.656618 0.98484,-0.479829 0.37885,0.17666 1.08592,0.656625 1.41423,1.262693 0.32827,0.631292 0.53028,0.858599 -0.0253,1.338447 -0.58087,0.505058 -1.99506,0.782834 -2.80313,1.363693 -0.80815,0.606033 -0.60617,1.111128 -0.88392,1.414126 -0.27776,0.303108 0.80814,-0.883834 1.38891,-0.454479 0.58086,0.454479 0.90914,0.303109 0.25253,1.111146 -0.65653,0.808154 -1.1616,0.959684 -1.1616,0.959684 0,0 0.1515,0.15137 0.50506,0.202073 0.35357,0.05058 0.88383,0.100913 0.88383,0.100913 0,0 -0.20201,0.606093 -0.47982,0.984911 -0.27782,0.378733 -1.21214,1.338466 -1.21214,1.338466 0,0 0.3031,0.328213 0.68183,0.505058 0.37886,0.151368 0.93437,0.303046 0.93437,0.303046 0,0 -0.22722,0.631366 -0.47976,1.010129 -0.25253,0.404022 -1.06068,1.186916 -1.06068,1.186916 0,0 0.25252,0.100975 0.55558,0.479892 0.30298,0.378731 0.65653,0.68184 0.98485,0.732284 0.32826,0.02529 0.8586,0.126449 0.8586,0.126449 0,0 -0.27783,1.363676 -0.88385,1.94451 -0.60604,0.580867 -1.26268,1.363682 -1.26268,1.363682 0,0 -0.42931,-0.100913 -0.53028,0.05057 -0.10097,0.15137 -0.22735,0.732304 -0.4546,0.934358 -0.22724,0.202073 -1.64145,1.464698 -1.64145,1.464698 0,0 -0.88384,0.883839 -1.01015,1.489909 -0.12626,0.631371 -0.0758,1.313224 -0.0758,1.313224 0,0 0.8586,-1.894059 1.91928,-1.969824 1.03538,-0.07569 1.11115,0.07575 1.61623,0.227301 0.50505,0.176659 1.13637,1.237466 1.13637,1.237466 0,0 -1.33838,1.035368 -1.84345,1.818202 -0.50506,0.782919 -0.90915,1.590993 -0.90915,1.590993 0,0 0.32828,0.100914 0.58087,0.277819 0.25253,0.176845 0.65661,0.530348 0.65661,0.530348 l 0.0253,0.302985 C 109.47314,29.919865 67.325006,-22.228611 67.325006,-84.200747 c 0,-73.866503 59.850854,-133.717363 133.717364,-133.717363 z" />
      <path
         inkscape:connector-curvature="0"
         style="fill:#ffffff;fill-opacity:1;fill-rule:evenodd;stroke:none;stroke-width:0.0252535;stroke-linejoin:round"
         id="path3810-7"
         d="m 201.29491,5.7522727 c 0,0 -6.23764,-2.3990625 -10.40446,-3.8385202 -4.16681,-1.4394394 -9.49531,-3.1314276 -10.07616,-2.70211566 -0.58086,0.40396038 -0.47982,0.35356622 -0.73237,0.88383398 -0.22724,0.55557506 -0.55552,1.33843938 -0.55552,1.33843938 0,0 -1.81829,-0.1513682 -2.22237,0.959617 -0.42931,1.136447 -0.53028,2.6011399 -0.45447,5.3538103 0.0758,2.8031395 0.45447,8.9144635 0.93438,10.1771435 0.47983,1.28791 1.43945,4.015284 2.77789,7.121502 1.36368,3.106124 1.84353,4.722408 2.3233,6.237636 0.47982,1.515143 1.46476,2.828356 2.19705,2.80314 0.70716,-0.05058 7.8791,-3.055748 9.49532,-4.015364 1.6163,-0.959604 5.93465,-4.772889 7.60134,-6.86896 1.66674,-2.070744 2.14659,-2.878897 2.14659,-2.878897 0,0 0.98484,-0.100914 1.76767,-0.277758 0.78292,-0.15143 3.10621,-0.73239 3.10621,-0.73239 0,0 0.17678,0.530287 0.98491,0.378856 0.78285,-0.151493 2.17176,-0.63139 2.17176,-0.63139 0,0 1.13646,0.252529 1.56576,0.151431 0.45454,-0.100975 1.54045,-0.858623 1.54045,-0.858623 0,0 4.54565,1.818221 6.94472,2.449611 2.39905,0.65652 4.67189,1.287915 6.5154,1.439439 1.81823,0.176844 2.50007,0.176844 2.50007,0.176844 0,0 2.12137,0.227239 3.48505,0.202072 1.36368,-0.02529 4.62134,-0.378731 6.21233,-1.161595 1.61623,-0.808154 2.72737,-1.262701 3.05568,-1.767777 0.32827,-0.505057 0.0506,-2.323352 -0.45454,-3.560818 -0.50506,-1.237361 -1.11115,-2.247513 -2.27284,-3.484973 -1.16167,-1.212133 -1.84352,-4.7223351 -2.24759,-6.086034 -0.37872,-1.3636807 -1.51522,-5.60633308 -2.70213,-8.7882373 -1.21214,-3.2072093 -3.8385,-8.8892457 -4.64658,-10.1519217 -0.78292,-1.287916 -1.6163,-2.702139 -2.80321,-2.62635 -1.21214,0.100913 -1.51514,0.934363 -3.45966,2.373821 -1.9193,1.43944 -5.90935,4.4698919 -8.30841,7.0457116 -2.39913,2.5505858 -4.62142,4.79818631 -5.58103,6.13664648 -0.95969,1.36367462 -2.39914,3.43444872 -2.39914,3.43444872 0,0 -1.51522,0.176659 -2.67682,0.176659 -1.16169,0 -2.52537,0.2777571 -3.35876,0.5555143 -0.83336,0.2778812 -1.96974,1.0354669 -1.96974,1.0354669 z" />
    </g>
  </g>
  <g
     style="display:inline"
     inkscape:label="graphql-logo"
     id="layer3"
     inkscape:groupmode="layer">
    <path
       transform="matrix(1.0258118,0,0,0.95262134,-3.1765832,5.551448)"
       id="path2448"
       style="fill:#000000;fill-opacity:0.556872;stroke-width:2.11228;filter:url(#filter2668)"
       d="m 83.55967,78.356198 h 31.80672 c 5.53202,0 9.9856,4.453577 9.9856,9.985598 v 31.806714 c 0,5.53202 -4.45358,9.9856 -9.9856,9.9856 H 83.55967 c -5.53202,0 -9.985597,-4.45358 -9.985597,-9.9856 V 88.341796 c 0,-5.532021 4.453577,-9.985598 9.985597,-9.985598 z"
       inkscape:connector-curvature="0" />
    <path
       inkscape:connector-curvature="0"
       d="m 88.043808,78.356198 h 31.806722 c 5.53202,0 9.9856,4.453577 9.9856,9.985598 v 31.806714 c 0,5.53202 -4.45358,9.9856 -9.9856,9.9856 H 88.043808 c -5.53202,0 -9.985597,-4.45358 -9.985597,-9.9856 V 88.341796 c 0,-5.532021 4.453577,-9.985598 9.985597,-9.985598 z"
       style="fill:#0c1923;fill-opacity:1;stroke-width:2.11228"
       id="rect2211" />
    <g
       style="fill:#e20096;fill-opacity:1"
       transform="matrix(0.10446588,0,0,0.10446588,83.053989,83.351976)"
       id="g2154">
	<g
   style="fill:#e20096;fill-opacity:1"
   id="g2092">
		<g
   style="fill:#e20096;fill-opacity:1"
   id="g2090">
			
				<rect
   style="fill:#e20096;fill-opacity:1"
   x="122"
   y="-0.40000001"
   transform="matrix(-0.866,-0.5,0.5,-0.866,163.3196,363.3136)"
   fill="#E535AB"
   width="16.6"
   height="320.29999"
   id="rect2088" />

		</g>

	</g>

	<g
   style="fill:#e20096;fill-opacity:1"
   id="g2098">
		<g
   style="fill:#e20096;fill-opacity:1"
   id="g2096">
			<rect
   style="fill:#e20096;fill-opacity:1"
   x="39.799999"
   y="272.20001"
   fill="#E535AB"
   width="320.29999"
   height="16.6"
   id="rect2094" />

		</g>

	</g>

	<g
   style="fill:#e20096;fill-opacity:1"
   id="g2104">
		<g
   style="fill:#e20096;fill-opacity:1"
   id="g2102">
			
				<rect
   style="fill:#e20096;fill-opacity:1"
   x="37.900002"
   y="312.20001"
   transform="matrix(-0.866,-0.5,0.5,-0.866,83.0693,663.3409)"
   fill="#E535AB"
   width="185"
   height="16.6"
   id="rect2100" />

		</g>

	</g>

	<g
   style="fill:#e20096;fill-opacity:1"
   id="g2110">
		<g
   style="fill:#e20096;fill-opacity:1"
   id="g2108">
			
				<rect
   style="fill:#e20096;fill-opacity:1"
   x="177.10001"
   y="71.099998"
   transform="matrix(-0.866,-0.5,0.5,-0.866,463.3409,283.0693)"
   fill="#E535AB"
   width="185"
   height="16.6"
   id="rect2106" />

		</g>

	</g>

	<g
   style="fill:#e20096;fill-opacity:1"
   id="g2116">
		<g
   style="fill:#e20096;fill-opacity:1"
   id="g2114">
			
				<rect
   style="fill:#e20096;fill-opacity:1"
   x="122.1"
   y="-13"
   transform="matrix(-0.5,-0.866,0.866,-0.5,126.7903,232.1221)"
   fill="#E535AB"
   width="16.6"
   height="185"
   id="rect2112" />

		</g>

	</g>

	<g
   style="fill:#e20096;fill-opacity:1"
   id="g2122">
		<g
   style="fill:#e20096;fill-opacity:1"
   id="g2120">
			
				<rect
   style="fill:#e20096;fill-opacity:1"
   x="109.6"
   y="151.60001"
   transform="matrix(-0.5,-0.866,0.866,-0.5,266.0828,473.3766)"
   fill="#E535AB"
   width="320.29999"
   height="16.6"
   id="rect2118" />

		</g>

	</g>

	<g
   style="fill:#e20096;fill-opacity:1"
   id="g2128">
		<g
   style="fill:#e20096;fill-opacity:1"
   id="g2126">
			<rect
   style="fill:#e20096;fill-opacity:1"
   x="52.5"
   y="107.5"
   fill="#E535AB"
   width="16.6"
   height="185"
   id="rect2124" />

		</g>

	</g>

	<g
   style="fill:#e20096;fill-opacity:1"
   id="g2134">
		<g
   style="fill:#e20096;fill-opacity:1"
   id="g2132">
			<rect
   style="fill:#e20096;fill-opacity:1"
   x="330.89999"
   y="107.5"
   fill="#E535AB"
   width="16.6"
   height="185"
   id="rect2130" />

		</g>

	</g>

	<g
   style="fill:#e20096;fill-opacity:1"
   id="g2140">
		<g
   style="fill:#e20096;fill-opacity:1"
   id="g2138">
			
				<rect
   style="fill:#e20096;fill-opacity:1"
   x="262.39999"
   y="240.10001"
   transform="matrix(-0.5,-0.866,0.866,-0.5,126.7953,714.2875)"
   fill="#E535AB"
   width="14.5"
   height="160.89999"
   id="rect2136" />

		</g>

	</g>

	<path
   style="fill:#e20096;fill-opacity:1"
   inkscape:connector-curvature="0"
   fill="#E535AB"
   d="m 369.5,297.9 c -9.6,16.7 -31,22.4 -47.7,12.8 -16.7,-9.6 -22.4,-31 -12.8,-47.7 9.6,-16.7 31,-22.4 47.7,-12.8 16.8,9.7 22.5,31 12.8,47.7"
   id="path2142" />

	<path
   style="fill:#e20096;fill-opacity:1"
   inkscape:connector-curvature="0"
   fill="#E535AB"
   d="m 90.9,137 c -9.6,16.7 -31,22.4 -47.7,12.8 -16.7,-9.6 -22.4,-31 -12.8,-47.7 9.6,-16.7 31,-22.4 47.7,-12.8 16.7,9.7 22.4,31 12.8,47.7"
   id="path2144" />

	<path
   style="fill:#e20096;fill-opacity:1"
   inkscape:connector-curvature="0"
   fill="#E535AB"
   d="m 30.5,297.9 c -9.6,-16.7 -3.9,-38 12.8,-47.7 16.7,-9.6 38,-3.9 47.7,12.8 9.6,16.7 3.9,38 -12.8,47.7 -16.8,9.6 -38.1,3.9 -47.7,-12.8"
   id="path2146" />

	<path
   style="fill:#e20096;fill-opacity:1"
   inkscape:connector-curvature="0"
   fill="#E535AB"
   d="m 309.1,137 c -9.6,-16.7 -3.9,-38 12.8,-47.7 16.7,-9.6 38,-3.9 47.7,12.8 9.6,16.7 3.9,38 -12.8,47.7 -16.7,9.6 -38.1,3.9 -47.7,-12.8"
   id="path2148" />

	<path
   style="fill:#e20096;fill-opacity:1"
   inkscape:connector-curvature="0"
   fill="#E535AB"
   d="m 200,395.8 c -19.3,0 -34.9,-15.6 -34.9,-34.9 0,-19.3 15.6,-34.9 34.9,-34.9 19.3,0 34.9,15.6 34.9,34.9 0,19.2 -15.6,34.9 -34.9,34.9"
   id="path2150" />

	<path
   style="fill:#e20096;fill-opacity:1"
   inkscape:connector-curvature="0"
   fill="#E535AB"
   d="m 200,74 c -19.3,0 -34.9,-15.6 -34.9,-34.9 0,-19.3 15.6,-34.9 34.9,-34.9 19.3,0 34.9,15.6 34.9,34.9 0,19.3 -15.6,34.9 -34.9,34.9"
   id="path2152" />

</g>
  </g>
</svg>
